# xmcd
#
# Track frame offsets: 
#        150
#        21840
#        40600
#        59880
#        78150
#        98407
#        120815
#        144417
#        168617
#        190530
#        214047
#        238395
#        258257
#        281155
#        303655
#        323972
#
# Disc length: 4598 seconds
#
# Revision: 2
# Processed by: cddbd v1.5.2PL0 Copyright (c) Steve Scherf et al.
# Submitted via: ExactAudioCopy v1.0b6
#
DISCID=dc11f410
DTITLE=Various Artist - Upfront - The Next Generation
DYEAR=1992
DGENRE=House
TTITLE0=Praga Khan Featuring Jade 4U - Injected With A Poison (Adam's 
TTITLE0=Power Mix)
TTITLE1=Chez Damier - Can U Feel It (Underground Resistance Mix)
TTITLE2=Double You - Please Don't Go (Club Mix)
TTITLE3=Blame - Music Takes You (2 Bad Mice Remix)
TTITLE4=D.O.P. - Groovy Beat (The Rocket Mix)
TTITLE5=Love Decade - I Feel You (Naked Club Mix)
TTITLE6=The Hypnotist - Live In Berlin (Hymn)
TTITLE7=Acen - Close Your Eyes (Optikonfusion!)
TTITLE8=Altern 8 - Armageddon (Evapor 8)
TTITLE9=The Brothers Grimm - Field Of Dreams
TTITLE10=R.H.C. - Reach (Pete Smith Remix)
TTITLE11=Project One Featuring Nanisha Williams - Roughneck
TTITLE12=K.W.S. - Please Don't Go (Upfront Mix)
TTITLE13=React 2 Rhythm - I Know You Like It (Scenes From A Fractal Bl
TTITLE13=otter Mix)
TTITLE14=Boyzland - Higher
TTITLE15=After Dark - Come With Me Tonight (Boyzland Remix)
EXTD=
EXTT0=
EXTT1=
EXTT2=
EXTT3=
EXTT4=
EXTT5=
EXTT6=
EXTT7=
EXTT8=
EXTT9=
EXTT10=
EXTT11=
EXTT12=
EXTT13=
EXTT14=
EXTT15=
PLAYORDER=
